{"title":"Les Miserables (1998) HQ 1080p Blu-ray x264 DTS-HDMA 5.1 MSubs -","uid":15834048,"size":12457121924,"categoryP":"video","categoryS":"hd___movies","magnet":"?xt=urn:btih:abcdb9f928329d657823172dcdf47fa0fbf0f7be&amp;dn=Les+Miserables+%281998%29+HQ+1080p+Blu-ray+x264+DTS-HDMA+5.1+MSubs+-&amp;tr=udp%3A%2F%2Ftracker.leechers-paradise.org%3A6969&amp;tr=udp%3A%2F%2Fzer0day.ch%3A1337&amp;tr=udp%3A%2F%2Fopen.demonii.com%3A1337&amp;tr=udp%3A%2F%2Ftracker.coppersurfer.tk%3A6969&amp;tr=udp%3A%2F%2Fexodus.desync.com%3A6969","seeders":4,"leechers":7,"uploader":"SaM","files":3,"time":1473952137,"description":"1080p Blu-ray Rip x264\r\n\r\n\r\n\r\nEnglsih DTS-HDMA 5.1 Audio\r\n\r\n\r\n\r\n\r\nArabic Danish Dutch Finnish English French\r\nSpanish Japanese Norwegian Portuguese Swedish\r\n\r\n+\r\n\r\nSDH + Foreign Subtitles \r\n \nhttp://extraimago.com/image/wI6A \nhttp://extraimago.com/image/wI6u \nhttp://extraimago.com/image/wI6V \nhttp://extraimago.com/image/wI66 \nhttp://extraimago.com/image/wI6x \nhttp://extraimago.com/image/wI6t \nhttp://extraimago.com/image/wI6o \nhttp://extraimago.com/image/wI6k \nhttp://extraimago.com/image/wI6H \nhttp://extraimago.com/image/wI6F \nhttp://extraimago.com/image/wI6D \nhttp://extraimago.com/image/wI65 \nhttp://extraimago.com/image/wI6g \nhttp://extraimago.com/image/wI6X\r\n\r\nSpecs:\r\nSource: BD50 @ DDR\r\n\r\nFormat : Matroska\r\nFile size : 11.5 GiB\r\nDuration : 2 h 13 min\r\nOverall bit rate : 12.3 Mb/s\r\n\r\nVideo\r\nFormat : AVC\r\nFormat/Info : Advanced Video Codec\r\nFormat profile :   \r\nFormat settings, CABAC : Yes\r\nFormat settings, ReFrames : 5 frames\r\nCodec ID : V_MPEG4/ISO/AVC\r\nDuration : 2 h 13 min\r\nBit rate : 10 000 kb/s\r\nWidth : 1 920 pixels\r\nHeight : 800 pixels\r\nDisplay aspect ratio : 2.40:1\r\nFrame rate mode : Constant\r\nFrame rate : 23.976 (24000/1001) FPS\r\nColor space : YUV\r\nChroma subsampling : 4:2:0\r\nBit depth : 8 bits\r\nScan type : Progressive\r\nBits/(Pixel*Frame) : 0.272\r\nStream size : 9.36 GiB (81%)\r\n\r\nAudio #1\r\nFormat : DTS\r\nFormat/Info : Digital Theater Systems\r\nFormat profile : MA / Core\r\nMode : 16\r\nFormat settings, Endianness : Big\r\nCodec ID : A_DTS\r\nDuration : 2 h 13 min\r\nBit rate mode : Variable / Constant\r\nBit rate : 2 153 kb/s / 1 509 kb/s\r\nChannel(s) : 6 channels\r\nChannel positions : Front: L C R, Side: L R, LFE\r\nSampling rate : 48.0 kHz\r\nFrame rate : 93.750 FPS (512 spf)\r\nBit depth : 16 bits\r\nCompression mode : Lossless / Lossy\r\nStream size : 2.01 GiB (18%)\r\nLanguage : English\r\nDefault : Yes\r\nForced : No\r\n\r\n\r\nChapters = YES","torrent":{"xt":"urn:btih:abcdb9f928329d657823172dcdf47fa0fbf0f7be","amp;dn":"Les+Miserables+%281998%29+HQ+1080p+Blu-ray+x264+DTS-HDMA+5.1+MSubs+-","amp;tr":["udp%3A%2F%2Ftracker.leechers-paradise.org%3A6969","udp%3A%2F%2Fzer0day.ch%3A1337","udp%3A%2F%2Fopen.demonii.com%3A1337","udp%3A%2F%2Ftracker.coppersurfer.tk%3A6969","udp%3A%2F%2Fexodus.desync.com%3A6969"],"infoHash":"abcdb9f928329d657823172dcdf47fa0fbf0f7be","infoHashBuffer":{"type":"Buffer","data":[171,205,185,249,40,50,157,101,120,35,23,45,205,244,127,160,251,240,247,190]},"announce":[],"urlList":[]}}